# xmcd
#
# Track frame offsets:
#	150
#	13043
#	26125
#	37095
#	49831
#	69134
#	86063
#	99580
#	113210
#	130828
#	145499
#	157439
#	168847
#
# Disc length: 2428 seconds
#
# Revision: 1
# Processed by: cddbd v1.5.2PL0 Copyright (c) Steve Scherf et al.
# Submitted via: audiograbber 1.83.01
#
DISCID=b6097a0d
DTITLE=Candye Kane - Guitars and Feathered
DYEAR=2007
DGENRE=Blues
TTITLE0=My country man
TTITLE1=Back with my old friends
TTITLE2=When I put the blues on you
TTITLE3=I'm not gonna cry today
TTITLE4=I done got over it
TTITLE5=Goodbye my heart
TTITLE6=I'm my own worst enemy
TTITLE7=Fine brown frame
TTITLE8=I'm lucky
TTITLE9=Jesus and Mohammed
TTITLE10=Club of the foolish hearts
TTITLE11=We're long ago and far away
TTITLE12=Crazy little thing
EXTD=Ruf Records
EXTT0=
EXTT1=
EXTT2=
EXTT3=
EXTT4=
EXTT5=
EXTT6=
EXTT7=
EXTT8=
EXTT9=
EXTT10=
EXTT11=
EXTT12=
PLAYORDER=
